<svg width="64" height="64" viewBox="0 0 64 64" fill="none" xmlns="http://www.w3.org/2000/svg">
<path d="M23.3922 28.4971L19.0377 25.6282C18.4204 25.2215 17.9685 24.6079 17.7631 23.8977C17.419 22.7073 17.8156 21.4263 18.7721 20.6385L19.2967 20.2065C19.6639 19.9041 20.0804 19.6673 20.528 19.5064L21.2156 19.2593C23.4459 18.4579 25.9117 18.6424 27.9978 19.7669L28.4035 19.9856C29.1893 20.4092 29.9107 20.9429 30.5457 21.5704L32.2438 23.2486H30.1991C29.7939 23.2486 29.3907 23.3053 29.0012 23.4171L28.5728 23.54C27.4782 23.8542 26.6059 24.683 26.2364 25.7602C26.1114 26.1244 26.0477 26.5067 26.0477 26.8918V27.6224" stroke="#EF6C00" stroke-width="3" stroke-linejoin="round"/>
<path d="M28.7031 29.4263L33.3769 27.1425C34.0535 26.8119 34.8253 26.7295 35.5549 26.91C36.769 27.2103 37.6881 28.1906 37.9019 29.4131L38.0138 30.0532C38.0967 30.5273 38.0957 31.0126 38.0109 31.4872L37.8882 32.1736C37.4751 34.4851 36.0757 36.5121 34.0495 37.7339L33.6454 37.9775C32.8885 38.4339 32.07 38.7806 31.2149 39.007L28.8768 39.6262L29.8948 37.8837C30.1002 37.532 30.2542 37.1534 30.3523 36.7593L30.4486 36.3717C30.7258 35.2572 30.4367 34.0816 29.6743 33.2232C29.421 32.9379 29.1223 32.6957 28.7899 32.506L28.142 32.1363" stroke="#EF6C00" stroke-width="3" stroke-linejoin="round"/>
<path d="M24.6246 33.4485L24.289 38.5904C24.2405 39.3348 23.9268 40.0366 23.4038 40.5707C22.5336 41.4596 21.215 41.7561 20.0368 41.3279L19.4199 41.1036C18.9629 40.9375 18.5382 40.694 18.1647 40.3841L17.6245 39.9359C15.8055 38.4266 14.7289 36.2154 14.6713 33.8704L14.6599 33.4028C14.6384 32.5268 14.7438 31.6529 14.9729 30.8078L15.5994 28.4971L16.6174 30.2396C16.8229 30.5913 17.0776 30.9124 17.374 31.1934L17.6655 31.4697C18.5036 32.2641 19.6783 32.6045 20.8117 32.3813C21.1884 32.3071 21.55 32.1725 21.8824 31.9829L22.5303 31.6132" stroke="#EF6C00" stroke-width="3" stroke-linejoin="round"/>
<ellipse cx="25.6051" cy="30.684" rx="3.09805" ry="3.06166" stroke="#EF6C00" stroke-width="3"/>
<path d="M56 8V26M56 8V7C56 6.44772 56.4477 6 57 6H61C61.5523 6 62 6.44772 62 7V27C62 27.5523 61.5523 28 61 28H57C56.4477 28 56 27.5523 56 27V26M56 8H24C11.8497 8 2 17.8497 2 30C2 42.1503 11.8497 52 24 52C36.1503 52 46 42.1503 46 30L45.9293 26H56M12.2756 41C9.60885 38.0351 8 34.195 8 30C8 20.6112 16.0589 13 26 13" stroke="#EF6C00" stroke-width="3" stroke-linecap="round"/>
<path d="M14 50L7 60H41L34 50" stroke="#EF6C00" stroke-width="3" stroke-linecap="round" stroke-linejoin="round"/>
</svg>
