<svg width="64" height="64" viewBox="0 0 64 64" fill="none" xmlns="http://www.w3.org/2000/svg">
<path d="M4 13V41.5C4 50.0604 10.9396 57 19.5 57C28.0604 57 35 50.0604 35 41.5V35C35 32.7909 36.7909 31 39 31H56M4 13H14M4 13H2V7H16V13H14M56 31V21M56 31C56 33.2091 57.7909 35 60 35H62V17H60C57.7909 17 56 18.7909 56 21M56 21C47.5993 21 43.1893 21 38.0007 21C30.821 21 25 26.8203 25 34V41.5C25 44.5376 22.5376 47 19.5 47C16.4624 47 14 44.5376 14 41.5V13" stroke="#2E7D32" stroke-width="3" stroke-linecap="round" stroke-linejoin="round"/>
</svg>
