<svg width="64" height="64" viewBox="0 0 64 64" fill="none" xmlns="http://www.w3.org/2000/svg">
<g clip-path="url(#clip0_57_74)">
<mask id="path-1-inside-1_57_74" fill="white">
<path d="M1 37V33H13.9538C15.9714 33 17.9758 33.3253 19.8899 33.9633C23.85 35.2833 27.2571 37.8857 29.5726 41.3589L32 45L34.9662 40.5507C36.9387 37.5919 39.7915 35.3282 43.121 34.0796C45.0248 33.3657 47.0415 33 49.0748 33H63V37C63 46.9411 54.9411 55 45 55H32H19C9.05887 55 1 46.9411 1 37Z"/>
</mask>
<path d="M33.5 45C33.5 44.1716 32.8284 43.5 32 43.5C31.1716 43.5 30.5 44.1716 30.5 45H32H33.5ZM32 55L30.7712 55.8602C31.0518 56.2612 31.5105 56.5 32 56.5C32.4895 56.5 32.9482 56.2612 33.2288 55.8602L32 55ZM31.1062 53.7232L32.3351 52.863H32.3351L31.1062 53.7232ZM15.8694 39.5217L15.0977 40.8079V40.8079L15.8694 39.5217ZM15.7717 37.7138C15.0614 37.2875 14.14 37.5179 13.7138 38.2283C13.2875 38.9386 13.5179 39.86 14.2283 40.2862L15 39L15.7717 37.7138ZM32.8938 53.7232L31.6649 52.863H31.6649L32.8938 53.7232ZM48.1306 39.5217L47.3588 38.2354V38.2354L48.1306 39.5217ZM49.7717 40.2862C50.4821 39.86 50.7125 38.9386 50.2862 38.2283C49.86 37.5179 48.9386 37.2875 48.2283 37.7138L49 39L49.7717 40.2862ZM32 45H30.5V55H32H33.5V45H32ZM32 55L33.2288 54.1398L32.3351 52.863L31.1062 53.7232L29.8774 54.5834L30.7712 55.8602L32 55ZM15.8694 39.5217L16.6412 38.2354L15.7717 37.7138L15 39L14.2283 40.2862L15.0977 40.8079L15.8694 39.5217ZM32 55L33.2288 55.8602L34.1226 54.5834L32.8938 53.7232L31.6649 52.863L30.7712 54.1398L32 55ZM48.1306 39.5217L48.9023 40.8079L49.7717 40.2862L49 39L48.2283 37.7138L47.3588 38.2354L48.1306 39.5217ZM31.1062 53.7232L32.3351 52.863C28.1886 46.9395 22.8413 41.9555 16.6412 38.2354L15.8694 39.5217L15.0977 40.8079C20.9367 44.3113 25.9725 49.0049 29.8774 54.5834L31.1062 53.7232ZM32.8938 53.7232L34.1226 54.5834C38.0275 49.0049 43.0634 44.3113 48.9023 40.8079L48.1306 39.5217L47.3588 38.2354C41.1587 41.9555 35.8114 46.9395 31.6649 52.863L32.8938 53.7232ZM1 33V30C-0.656854 30 -2 31.3431 -2 33H1ZM63 33H66C66 31.3431 64.6569 30 63 30V33ZM32 45L29.5038 46.6641L32 50.4083L34.4962 46.6641L32 45ZM34.9662 40.5507L32.4701 38.8866V38.8866L34.9662 40.5507ZM43.121 34.0796L42.0676 31.2706V31.2706L43.121 34.0796ZM19.8899 33.9633L20.8386 31.1172V31.1172L19.8899 33.9633ZM1 33H-2V37H1H4V33H1ZM63 37H66V33H63H60V37H63ZM13.9538 33V30H1V33V36H13.9538V33ZM63 33V30H49.0748V33V36H63V33ZM32 45L34.4962 43.3359L32.0688 39.6948L29.5726 41.3589L27.0765 43.023L29.5038 46.6641L32 45ZM34.9662 40.5507L32.4701 38.8866L29.5038 43.3359L32 45L34.4962 46.6641L37.4624 42.2148L34.9662 40.5507ZM19 55V58H32V55V52H19V55ZM32 55V58H45V55V52H32V55ZM43.121 34.0796L42.0676 31.2706C38.149 32.7401 34.7915 35.4044 32.4701 38.8866L34.9662 40.5507L37.4624 42.2148C39.0859 39.7795 41.4339 37.9163 44.1744 36.8886L43.121 34.0796ZM49.0748 33V30C46.6818 30 44.3083 30.4304 42.0676 31.2706L43.121 34.0796L44.1744 36.8886C45.7413 36.301 47.4012 36 49.0748 36V33ZM13.9538 33V36C15.649 36 17.333 36.2733 18.9412 36.8093L19.8899 33.9633L20.8386 31.1172C18.6186 30.3773 16.2939 30 13.9538 30V33ZM63 37H60C60 45.2843 53.2843 52 45 52V55V58C56.598 58 66 48.598 66 37H63ZM29.5726 41.3589L32.0688 39.6948C29.3832 35.6665 25.4316 32.6482 20.8386 31.1172L19.8899 33.9633L18.9412 36.8093C22.2684 37.9184 25.131 40.1049 27.0765 43.023L29.5726 41.3589ZM1 37H-2C-2 48.598 7.40202 58 19 58V55V52C10.7157 52 4 45.2843 4 37H1Z" fill="#6B8E23" mask="url(#path-1-inside-1_57_74)"/>
<path d="M29.5 63V54M34.5 63V54" stroke="#6B8E23" stroke-width="3" stroke-linecap="round" stroke-linejoin="round"/>
<path d="M12.1786 18.3C12.1786 18.3 13.4756 17.6818 14.0357 16.7167C14.5959 15.7515 14.5 14.5 14.5 14.5M11.5 3C11.5 3 6.37207 10 5.34648 13C4.32089 16 5.34646 22 11.5 22C17.6536 22 18.6791 16 17.6535 13C16.6279 10 11.5 3 11.5 3Z" stroke="#6B8E23" stroke-width="3" stroke-linecap="round" stroke-linejoin="round"/>
<path d="M53.1786 17.3C53.1786 17.3 54.4756 16.6818 55.0357 15.7167C55.5959 14.7515 55.5 13.5 55.5 13.5M52.5 2C52.5 2 47.3721 9 46.3465 12C45.3209 15 46.3465 21 52.5 21C58.6536 21 59.6791 15 58.6535 12C57.6279 9 52.5 2 52.5 2Z" stroke="#6B8E23" stroke-width="3" stroke-linecap="round" stroke-linejoin="round"/>
<path d="M32.6143 27.36C32.6143 27.36 34.1707 26.6182 34.8429 25.46C35.515 24.3018 35.4 22.8 35.4 22.8M31.8 9C31.8 9 25.6465 17.4 24.4158 21C23.1851 24.6 24.4158 31.8 31.8 31.8C39.1843 31.8 40.4149 24.6 39.1842 21C37.9535 17.4 31.8 9 31.8 9Z" stroke="#6B8E23" stroke-width="3" stroke-linecap="round" stroke-linejoin="round"/>
</g>
<defs>
<clipPath id="clip0_57_74">
<rect width="64" height="64" fill="white"/>
</clipPath>
</defs>
</svg>
