<svg width="64" height="64" viewBox="0 0 64 64" fill="none" xmlns="http://www.w3.org/2000/svg">
<path d="M2 44C3.23043 43.3848 4.70014 43.5001 5.81956 44.2997L7.5 45.5C9.5937 46.9955 12.4063 46.9955 14.5 45.5C16.5937 44.0045 19.4063 44.0045 21.5 45.5C23.5937 46.9955 26.4063 46.9955 28.5 45.5C30.5937 44.0045 33.4063 44.0045 35.5 45.5C37.5937 46.9955 40.4063 46.9955 42.5 45.5C44.5937 44.0045 47.4063 44.0045 49.5 45.5C51.5937 46.9955 54.4063 46.9955 56.5 45.5L58.1804 44.2997C59.2999 43.5001 60.7696 43.3848 62 44" stroke="#039BE5" stroke-width="3" stroke-linecap="round" stroke-linejoin="round"/>
<path d="M2 56C3.23043 55.3848 4.70014 55.5001 5.81956 56.2997L7.5 57.5C9.5937 58.9955 12.4063 58.9955 14.5 57.5C16.5937 56.0045 19.4063 56.0045 21.5 57.5C23.5937 58.9955 26.4063 58.9955 28.5 57.5C30.5937 56.0045 33.4063 56.0045 35.5 57.5C37.5937 58.9955 40.4063 58.9955 42.5 57.5C44.5937 56.0045 47.4063 56.0045 49.5 57.5C51.5937 58.9955 54.4063 58.9955 56.5 57.5L58.1804 56.2997C59.2999 55.5001 60.7696 55.3848 62 56" stroke="#039BE5" stroke-width="3" stroke-linecap="round" stroke-linejoin="round"/>
<path d="M23 40V30.5M35.6667 11.2286V8.33333C35.6667 4.83553 32.8311 2 29.3333 2C25.8355 2 23 4.83553 23 8.33333V21M48.3333 40V30.5M61 11.2286V8.33333C61 4.83553 58.1645 2 54.6667 2C51.1689 2 48.3333 4.83553 48.3333 8.33333V21M23 21L48.3333 21M23 21V30.5M48.3333 21V30.5M23 30.5L48.3333 30.5" stroke="#039BE5" stroke-width="3" stroke-linecap="round" stroke-linejoin="round"/>
</svg>
