<svg width="64" height="64" viewBox="0 0 64 64" fill="none" xmlns="http://www.w3.org/2000/svg">
<path d="M14.2726 42H47.4707C55.495 42 62 35.495 62 27.4707V26.9317C62 16.6414 51.384 9.7772 42 14C40.8459 7.07534 34.756 2 27.7358 2C19.6629 2 13 8.54439 13 16.6173V17.5C6.84571 17.7797 2 22.8507 2 29.0114V29.7274C2 36.5054 7.49462 42 14.2726 42Z" stroke="#5E60CE" stroke-width="3" stroke-linecap="round" stroke-linejoin="round"/>
<path d="M21.5 52.5L25.5 46.5M9.5 52.5L13.5 46.5M33.5 52.5L37.5 46.5M45.5 52.5L49.5 46.5M23.5 61.5L27.5 55.5M11.5 61.5L15.5 55.5M35.5 61.5L39.5 55.5M47.5 61.5L51.5 55.5" stroke="#5E60CE" stroke-width="3" stroke-linecap="round" stroke-linejoin="round"/>
</svg>
