<svg width="64" height="64" viewBox="0 0 64 64" fill="none" xmlns="http://www.w3.org/2000/svg">
<path d="M27 46.3137H25C24.4477 46.3137 24 45.866 24 45.3137V23.7647M27 46.3137H35M27 46.3137V57.098M24 23.7647H23C22.4477 23.7647 22 23.317 22 22.7647V19.8627C22 19.3105 22.4477 18.8627 23 18.8627H27M24 23.7647H38M27 18.8627H35M27 18.8627V12M35 18.8627H39C39.5523 18.8627 40 19.3105 40 19.8627V22.7647C40 23.317 39.5523 23.7647 39 23.7647H38M35 18.8627V12M38 23.7647V45.3137C38 45.866 37.5523 46.3137 37 46.3137H35M35 46.3137V57.098M35 57.098H35.5253C35.8257 57.098 36.1102 57.2331 36.3001 57.4658L38.6681 60.3678C39.2011 61.0209 38.7363 62 37.8933 62H24.1067C23.2637 62 22.7989 61.0209 23.3319 60.3678L25.6999 57.4658C25.8898 57.2331 26.1743 57.098 26.4747 57.098H27M35 57.098H27" stroke="#C88719" stroke-width="3" stroke-linejoin="round"/>
<path d="M36 5C36 5 40 5 44 5C48 5 50 6.40001 52 12C53.7158 16.8043 58.0077 29.5575 59.1927 33.0847C59.3655 33.5989 59.0934 34.1479 58.5836 34.3332L54.9655 35.6489C54.4366 35.8412 53.8553 35.5658 53.6773 35.0318C52.6868 32.0603 49.657 22.9709 48 18C46 12 46 10.5 42 10.5C38 10.5 36.5 10.5 36.5 10.5" stroke="#C88719" stroke-width="3" stroke-linejoin="round"/>
<circle cx="31" cy="8" r="5.5" stroke="#C88719" stroke-width="3"/>
<path d="M20 33H14C14 33 13 33 12.5 33.5C12 34 12 35 12 35V37H7V31C7 31 7 30 8 29C9 28 10 28 10 28H20M24 26H20V35H24" stroke="#C88719" stroke-width="3" stroke-linejoin="round"/>
<path d="M6.18657 46.2632C6.73881 44.6842 9.50001 41 9.50001 41C9.50001 41 12.2612 44.6842 12.8134 46.2632C13.3657 47.8421 12.8135 51 9.50001 51C6.18656 51 5.63433 47.8421 6.18657 46.2632Z" stroke="#C88719" stroke-width="3" stroke-linejoin="round"/>
</svg>
