<svg width="64" height="64" viewBox="0 0 64 64" fill="none" xmlns="http://www.w3.org/2000/svg">
<path d="M10 34L17.4002 49.2937C17.4659 49.4295 17.5 49.5784 17.5 49.7292V61C17.5 61.5523 17.9477 62 18.5 62H48C48.5523 62 49 61.5523 49 61V50.231C49 49.7956 49.28 49.4038 49.669 49.2083C50.7449 48.6675 52.9943 47.2536 55.5 44C59 39.4554 58.5 34 58.5 34M10 34H6.5C5.94772 34 5.5 33.5523 5.5 33V7C5.5 4.23858 7.73858 2 10.5 2H17C19.7614 2 22 4.23858 22 7V34M10 34H22M58.5 34H28M58.5 34V32C58.5 29.7909 56.7091 28 54.5 28H32C29.7909 28 28 29.7909 28 32V34M22 34H28" stroke="#616161" stroke-width="3"/>
</svg>
