<svg width="64" height="64" viewBox="0 0 64 64" fill="none" xmlns="http://www.w3.org/2000/svg">
<path d="M55.5794 47.1531L54.2938 59.212C54.1854 60.2288 53.3276 61 52.3051 61H34.9524M55.5794 47.1531H8.42063M55.5794 47.1531C56.143 47.1531 56.6198 46.7363 56.6952 46.1778L60.5 18M8.42063 47.1531L9.70621 59.212C9.8146 60.2288 10.6724 61 11.6949 61H29.0476M8.42063 47.1531C7.85702 47.1531 7.38024 46.7363 7.30482 46.1778L3.5 18M3.5 18H2C1.72386 18 1.5 17.7761 1.5 17.5V13.9388C1.5 13.6626 1.72386 13.4388 2 13.4388H2.47619M3.5 18H29.0476M60.5 18H62C62.2761 18 62.5 17.7761 62.5 17.5V13.9388C62.5 13.6626 62.2761 13.4388 62 13.4388H61.5238M60.5 18H34.9524M2.47619 13.4388L6.02897 9.09194C6.27917 8.78583 6.61447 8.56073 6.99254 8.44509L27.7775 2.08747C27.9671 2.02948 28.1643 2 28.3625 2H30M2.47619 13.4388H30M61.5238 13.4388L57.971 9.09194C57.7208 8.78583 57.3855 8.56073 57.0075 8.44509L36.2225 2.08747C36.0329 2.02948 35.8357 2 35.6375 2H34M61.5238 13.4388H34M30 13.4388V2M30 13.4388H34M30 2H34M34 13.4388V2M29.0476 61V57.5816C29.0476 56.4771 29.943 55.5816 31.0476 55.5816H32.9524C34.0569 55.5816 34.9524 56.4771 34.9524 57.5816V61M29.0476 61H34.9524M29.0476 18V21.4184C29.0476 22.5229 29.943 23.4184 31.0476 23.4184H32.9524C34.0569 23.4184 34.9524 22.5229 34.9524 21.4184V18M29.0476 18H34.9524" stroke="#0E7490" stroke-width="3"/>
</svg>
