<svg width="64" height="64" viewBox="0 0 64 64" fill="none" xmlns="http://www.w3.org/2000/svg">
<g clip-path="url(#clip0_57_113)">
<path d="M60 7V62H5V7M60 7H55M60 7C61.3807 7 62.5 5.88071 62.5 4.5C62.5 3.11929 61.3807 2 60 2H4C2.61929 2 1.5 3.11929 1.5 4.5C1.5 5.88071 2.61929 7 4 7H5M5 7H10M10 7H55M10 7V18.5M55 7V18.5M10 18.5V57H55V18.5M10 18.5C11.493 17.007 13.7738 16.6369 15.6623 17.5811L18.4042 18.9521C20.9826 20.2413 24.0174 20.2413 26.5958 18.9521L27.5 18.5C30.6476 16.9262 34.3524 16.9262 37.5 18.5L38.4042 18.9521C40.9826 20.2413 44.0174 20.2413 46.5958 18.9521L49.3377 17.5811C51.2262 16.6369 53.507 17.007 55 18.5" stroke="#6D4C41" stroke-width="3" stroke-linecap="round" stroke-linejoin="round"/>
<path d="M15 26H20M25 26H30M35 26H40M45 26H50M20 31H25M30 31H35M40 31H45M15 36H20M25 36H30M35 36H40M45 36H50M20 41H25M30 41H35M40 41H45M15 46H20M25 46H30M35 46H40M45 46H50M20 51H25M30 51H35M40 51H45" stroke="#6D4C41" stroke-width="3" stroke-linecap="round" stroke-linejoin="round"/>
</g>
<defs>
<clipPath id="clip0_57_113">
<rect width="64" height="64" fill="white"/>
</clipPath>
</defs>
</svg>
